<svg width="360" height="150" fill="none" xmlns="http://www.w3.org/2000/svg"><path d="m296 110.628-33.284-.001V71.763h58.252v9.771h-47.813v18.351h58.113v10.743H296ZM189.693 99.61c2.955-6.923 5.747-13.501 8.556-20.072 3.746-8.761 3.752-8.759 14.155-7.744l-3.771 9.39h21.633l-16.714-39.36c3.441 0 6.233-.183 8.979.096 1.017.103 2.407 1.084 2.81 2.017 9.467 21.949 18.823 43.947 28.29 66.149-.825.244-1.238.466-1.657.475-9.171.202-9.171.197-12.82-8.349-4.421-10.352-4.421-10.352-15.413-10.352-5.332 0-10.67.143-15.994-.06-2.718-.103-4.334.583-5.203 3.342-.843 2.678-2.204 5.191-3.319 7.785-3.733 8.681-3.729 8.682-13.965 7.092 1.449-3.41 2.863-6.736 4.433-10.41ZM58.426 103.228c6.294-.696 12.214-1.595 18.152-1.726 10.066-.22 19.953-1.001 29.158-5.532 2.594-1.277 5.107-2.718 8.054-4.296-5.124 19.67-36.374 39.716-65.99 19.274 3.637-2.686 6.949-5.132 10.626-7.72ZM57.123 35.993c9.279-3.848 18.386-4.125 27.73-1.957 2.65.615 3.35 1.803 3.385 4.411.139 10.315-1.761 12.582-11.933 12.355-14.389-.322-28.514.614-42.387 7.926 5.421-10.891 12.615-18.313 23.205-22.735ZM79.82 79.862c-6.954.144-13.5-.25-19.895.55-10.01 1.255-18.453 6.136-25.437 13.581-3.577-7.413-3.538-7.36 2.515-11.878 9.31-6.946 19.9-9.645 31.33-9.715 4.82-.029 9.655.094 14.455-.246 10.775-.762 18.783-5.996 23.908-15.544.92-1.714 1.768-3.466 2.699-5.3 5.458 7.732 5.348 7.894-.337 15.007-7.404 9.265-17.239 13.139-29.237 13.545ZM269.136 51.859h-6.332v-9.692h68.392v9.692h-62.06Z" fill="#fff"/><path d="M78.99 94.178c-10.484-.094-20.59-.62-29.237 5.787-2.502 1.853-4.713 4.098-7.306 6.382l-4.282-5.197c6.813-8.97 15.882-13.418 26.86-14.066 5.31-.313 10.65-.042 15.976-.109 13.213-.165 24.169-5.302 32.935-15.14.744-.835 1.215-1.915 2.077-3.309 3.147 8.112.304 12.685-5.487 16.483-9.474 6.212-19.665 9.597-31.535 9.17ZM35.734 65.793c10.059-5.453 20.567-7.54 31.509-7.789 4.156-.095 8.318.067 12.474-.037 9.573-.237 14.738-4.895 16.005-14.352.194-1.443.219-2.909.329-4.457 7.754 4.125 8.198 5.31 4.981 12.687-3.787 8.688-10.58 12.813-19.885 13.316-9.266.5-18.75.099-27.719 2.032-8.051 1.735-15.534 6.105-23.142 9.26.302-3.577-.793-8.544 5.448-10.66Z" fill="#fff"/><path d="M146.07 45.016v74.636l-1.353.002v-87.14l1.353-.12v12.622Z" fill="#9FDFD0"/></svg>