<svg width="64" height="64" fill="none" xmlns="http://www.w3.org/2000/svg"><circle cx="32" cy="32" r="32" fill="#4BB498"/><path d="M23.119 47.639c3.624-.4 7.034-.917 10.453-.991 5.796-.127 11.49-.576 16.79-3.18C51.856 42.736 53.303 41.907 55 41c-2.95 11.303-20.946 22.822-38 11.075 2.095-1.543 4.001-2.949 6.119-4.436ZM22.669 8.908c5.465-2.216 10.83-2.376 16.333-1.127 1.562.354 1.973 1.038 1.994 2.54.082 5.94-1.037 7.246-7.028 7.115C25.492 17.25 17.172 17.79 9 22c3.193-6.272 7.43-10.545 13.669-13.092ZM35.592 33.723c-4.019.084-7.8-.146-11.496.323-5.785.735-10.663 3.593-14.699 7.954-2.067-4.342-2.044-4.311 1.454-6.957 5.38-4.069 11.498-5.65 18.103-5.69 2.785-.017 5.58.055 8.353-.144 6.226-.447 10.853-3.512 13.815-9.105.532-1.004 1.022-2.03 1.56-3.104 3.154 4.529 3.09 4.623-.195 8.79-4.278 5.427-9.961 7.696-16.895 7.933Z" fill="#fff"/><path d="M34.727 42.243c-6.094-.052-11.967-.344-16.993 3.213-1.454 1.029-2.739 2.276-4.245 3.544L11 46.114c3.959-4.98 9.23-7.45 15.61-7.81 3.086-.174 6.19-.023 9.285-.06 7.68-.092 14.047-2.945 19.141-8.407.433-.464.707-1.063 1.208-1.837 1.829 4.504.176 7.043-3.19 9.152-5.505 3.449-11.428 5.329-18.327 5.091ZM10.15 25.712c5.817-3.217 11.894-4.448 18.221-4.595 2.404-.056 4.81.04 7.214-.021 5.536-.14 8.523-2.888 9.256-8.467.112-.85.126-1.716.19-2.629 4.484 2.434 4.74 3.132 2.88 7.484-2.19 5.125-6.118 7.558-11.499 7.855-5.358.295-10.842.059-16.03 1.199C15.728 27.56 11.4 30.138 7 32c.175-2.11-.459-5.04 3.15-6.288Z" fill="#fff"/></svg>