<svg width="40" height="39" viewBox="0 0 40 39" fill="none" xmlns="http://www.w3.org/2000/svg">
<path d="M19.7463 0.930969C14.5757 0.78962 13.9263 0.793585 11.8931 0.826787C9.86381 0.860479 8.47192 1.1307 7.24903 1.54958C5.98409 1.98216 4.90483 2.57758 3.81882 3.56492C2.73203 4.55186 2.05367 5.55377 1.53296 6.74213C1.02918 7.89171 0.671589 9.21142 0.527193 11.1539C0.383068 13.1009 0.34223 13.7236 0.206536 18.6873C0.0708419 23.6509 0.0768698 24.2726 0.115594 26.2246C0.155613 28.1729 0.440184 29.5098 0.878826 30.6847C1.33264 31.9001 1.95524 32.9376 2.98609 33.9824C4.01613 35.028 5.06121 35.683 6.29983 36.184C7.4988 36.6691 8.87425 37.015 10.8982 37.1595C12.9266 37.3037 13.5745 37.3432 18.7446 37.4845C23.9156 37.6259 24.5631 37.6218 26.5963 37.5886C28.6255 37.555 30.019 37.2848 31.2427 36.8659C32.5072 36.4333 33.585 35.8363 34.6706 34.8486C35.7574 33.8617 36.4357 32.8598 36.9564 31.6714C37.4562 30.5217 37.8138 29.202 37.9622 27.2596C38.1067 25.3126 38.1475 24.6919 38.2832 19.7282C38.4189 14.7645 38.4121 14.1409 38.3742 12.1889C38.3322 10.2406 38.0472 8.90368 37.611 7.72879C37.156 6.51337 36.5334 5.4759 35.5021 4.43106C34.4709 3.38546 33.4289 2.73205 32.1883 2.23135C30.987 1.7462 29.6111 1.40032 27.5868 1.25581C25.5584 1.11158 24.9125 1.0722 19.7403 0.930807L19.7463 0.930969ZM17.9483 4.17791C18.4553 4.19101 19.0208 4.20723 19.6563 4.2246C24.7395 4.36357 25.3416 4.39755 27.3465 4.54C29.2006 4.67223 30.1999 4.99753 30.8641 5.26604C31.7436 5.6216 32.3662 6.03491 33.0146 6.69281C33.6635 7.35071 34.0593 7.97121 34.3819 8.83359C34.6249 9.48421 34.909 10.4598 34.9448 12.2441C34.9833 14.1733 34.9873 14.7526 34.854 19.6302C34.7207 24.5079 34.685 25.0861 34.5411 27.0103C34.4075 28.7899 34.0709 29.7486 33.7927 30.385C33.4243 31.2285 32.9944 31.8245 32.3106 32.4456C31.6268 33.0671 30.9833 33.4458 30.0854 33.7527C29.4082 33.9857 28.3918 34.2551 26.5334 34.2859C24.524 34.3186 23.9206 34.3211 18.8373 34.1822C13.7536 34.0432 13.1516 34.0077 11.1471 33.8653C9.29305 33.7323 8.29373 33.407 7.62906 33.1384C6.74965 32.7829 6.12586 32.3695 5.477 31.7116C4.82814 31.0537 4.43225 30.4348 4.10971 29.572C3.86671 28.9214 3.58259 27.9457 3.54682 26.1614C3.50826 24.2323 3.50584 23.653 3.63926 18.7723C3.77269 13.8917 3.80667 13.3165 3.95057 11.3923C4.08416 9.6126 4.42077 8.65393 4.69898 8.0168C5.06737 7.17331 5.49732 6.57538 6.18115 5.95391C6.86499 5.33244 7.51043 4.95379 8.40797 4.64605C9.08595 4.41309 10.1019 4.14365 11.9604 4.11253C13.7188 4.08439 14.4001 4.08015 17.9485 4.17334L17.9483 4.17791ZM29.7359 7.53713C28.4746 7.50265 27.4245 8.45591 27.3913 9.66713C27.3582 10.878 28.3547 11.8883 29.616 11.9228C30.8773 11.9573 31.9275 11.0029 31.9606 9.79204C31.9937 8.5812 30.9972 7.57085 29.7359 7.53637L29.7359 7.53713ZM19.5032 9.82187C14.1038 9.67426 9.61128 13.7571 9.46958 18.9405C9.32788 24.1239 13.5907 28.4442 18.9901 28.5918C24.3895 28.7394 28.8804 24.6584 29.0221 19.475C29.1638 14.2916 24.9023 9.96947 19.5028 9.82186L19.5032 9.82187ZM19.4132 13.1155C22.9179 13.2113 25.6848 16.0164 25.5928 19.3813C25.5009 22.7457 22.5848 25.3958 19.0801 25.3C15.575 25.2042 12.8085 22.3987 12.9005 19.0343C12.9925 15.6694 15.9081 13.0197 19.4132 13.1155Z" fill="#76CAB3"/>
</svg>
