<svg width="36" height="36" viewBox="0 0 36 36" fill="none" xmlns="http://www.w3.org/2000/svg">
<path d="M0 2.57881C0 1.15495 1.18353 0 2.64356 0H33.3564C34.8164 0 36 1.15496 36 2.57882V33.4212C36 34.8455 34.8164 36 33.3564 36L2.64356 36C1.18353 36 0 34.8455 0 33.4212V2.57881ZM11.1226 30.1357V13.8797H5.71941V30.1357H11.1226ZM8.42098 11.6602C10.3052 11.6602 11.4779 10.4119 11.4779 8.85196C11.4428 7.25685 10.3052 6.04321 8.45673 6.04321C6.60845 6.04321 5.4 7.25685 5.4 8.85196C5.4 10.4119 6.57251 11.6602 8.38576 11.6602H8.42098ZM19.4656 30.1357V21.0577C19.4656 20.5718 19.5008 20.0865 19.6434 19.7392C20.034 18.7684 20.9231 17.7631 22.4157 17.7631C24.3709 17.7631 25.153 19.2538 25.153 21.4391V30.1357H30.5557V20.8148C30.5557 15.8216 27.8901 13.4983 24.3352 13.4983C21.469 13.4983 20.1839 15.0736 19.4658 16.1813V16.2373H19.4297C19.4416 16.2187 19.4536 16.2001 19.4658 16.1813V13.8797H14.0626C14.1336 15.4051 14.0626 30.1357 14.0626 30.1357H19.4656Z" fill="#76CAB3"/>
</svg>
