<svg width="50" height="50" viewBox="0 0 51 50" fill="none" xmlns="http://www.w3.org/2000/svg">
<path fill-rule="evenodd" clip-rule="evenodd" d="M6.04674 1.59711C8.37597 -0.721996 12.2196 -0.483741 14.2419 2.10511L19.8717 9.31196C20.9049 10.6345 21.2699 12.3565 20.8618 13.982L19.1441 20.8228C18.9628 21.545 19.1753 22.309 19.704 22.8354L27.4144 30.5122C27.9431 31.0386 28.7104 31.2502 29.4357 31.0696L36.3064 29.3594C37.939 28.9531 39.6685 29.3166 40.9968 30.3452L48.2351 35.9505C50.8353 37.9641 51.0746 41.791 48.7454 44.1101L45.5002 47.3411C43.1785 49.6527 39.7059 50.6678 36.4696 49.5349C28.434 46.722 20.8913 42.1169 14.47 35.7235C8.04864 29.3301 3.42338 21.8202 0.598253 13.8195C-0.53957 10.5973 0.479902 7.13975 2.80162 4.82812L6.04674 1.59711Z" fill="#76CAB3"/>
</svg>
